<svg width="232" height="245" viewBox="0 0 232 245" fill="none" xmlns="http://www.w3.org/2000/svg">
<path d="M194.941 148.421C194.941 246.421 37.9407 244.921 37.9407 148.421C25.1074 139.921 0.940716 116.521 6.94072 90.9211C12.9407 65.3211 36.4407 58.9212 47.4407 58.9212C39.8407 17.3212 77.4407 -14.0789 116.941 21.4211C158.141 -14.5789 194.941 21.4211 185.441 58.9212C252.941 64.4211 224.441 137.921 194.941 148.421Z" fill="white" stroke="#8155B4" stroke-width="10"/>
<path d="M97.0638 48.0357C97.8789 54.2596 96.8386 59.9521 94.7021 64.0956C92.5572 68.2557 89.5348 70.5133 86.3961 70.9244C83.2574 71.3355 79.7556 69.9324 76.6117 66.465C73.4802 63.0115 71.0089 57.7789 70.1937 51.555C69.3785 45.3312 70.4189 39.6387 72.5554 35.4951C74.7003 31.3351 77.7227 29.0775 80.8614 28.6664C84 28.2553 87.5019 29.6584 90.6458 33.1257C93.7773 36.5793 96.2486 41.8119 97.0638 48.0357Z" fill="#F9ED81" stroke="#8155B4" stroke-width="8"/>
<path d="M161.064 51.555C161.879 45.3312 160.839 39.6387 158.702 35.4951C156.557 31.3351 153.535 29.0775 150.396 28.6664C147.257 28.2553 143.756 29.6584 140.612 33.1257C137.48 36.5793 135.009 41.8119 134.194 48.0357C133.379 54.2596 134.419 59.9521 136.555 64.0956C138.7 68.2557 141.723 70.5133 144.861 70.9244C148 71.3355 151.502 69.9323 154.646 66.465C157.777 63.0115 160.249 57.7789 161.064 51.555Z" fill="#F9ED81" stroke="#8155B4" stroke-width="8"/>
<path d="M203.56 107.275C205.201 94.7487 198.314 85.0963 190.144 84.0263C181.975 82.9563 172.834 90.5095 171.194 103.036C169.553 115.562 176.44 125.214 184.61 126.284C192.779 127.354 201.919 119.801 203.56 107.275Z" fill="#F9ED81" stroke="#8155B4" stroke-width="8"/>
<path d="M63.5601 103.036C65.2007 115.562 58.3136 125.214 50.1443 126.284C41.9749 127.354 32.8343 119.801 31.1937 107.275C29.5531 94.7487 36.4402 85.0963 44.6095 84.0263C52.7789 82.9563 61.9195 90.5095 63.5601 103.036Z" fill="#F9ED81" stroke="#8155B4" stroke-width="8"/>
<path d="M73.4407 156.421C73.4407 186.421 104.607 179.921 117.941 172.421C130.607 177.921 161.441 187.421 161.441 156.421C161.441 141.421 149.607 138.921 141.941 135.921C139.607 126.921 131.941 105.421 117.941 105.421C104.055 105.421 95.6074 124.588 92.9407 135.921C92.9407 135.921 73.4407 135.921 73.4407 156.421Z" fill="#F9ED81" stroke="#8155B4" stroke-width="8"/>
<path d="M75.8519 235.75C75.1809 235.43 74.5735 235.116 74.0296 234.81C73.4876 234.488 73.0307 234.128 72.6588 233.73C72.287 233.332 72.01 232.88 71.828 232.375C71.6637 231.856 71.6229 231.247 71.7054 230.548C71.865 229.198 72.509 228.178 73.6375 227.49C74.7819 226.803 76.2916 226.571 78.1666 226.792C78.8498 226.873 79.4798 226.996 80.0564 227.16C80.6331 227.325 81.1158 227.535 81.5045 227.791C81.911 228.032 82.2147 228.326 82.4155 228.671C82.6182 229.002 82.6951 229.373 82.6463 229.786C82.5975 230.199 82.46 230.546 82.2337 230.825C82.0092 231.089 81.7497 231.308 81.4552 231.482C81.1319 231.218 80.6857 230.972 80.1165 230.744C79.5493 230.5 78.916 230.337 78.2169 230.254C77.5019 230.169 76.9653 230.211 76.6072 230.378C76.251 230.529 76.0551 230.756 76.0195 231.058C75.9913 231.296 76.0711 231.507 76.2589 231.69C76.4486 231.858 76.7425 232.029 77.1406 232.205L78.356 232.76C79.7933 233.413 80.8651 234.16 81.5714 235C82.2954 235.827 82.5824 236.876 82.4323 238.147C82.2727 239.497 81.611 240.531 80.4469 241.247C79.2847 241.948 77.6708 242.176 75.6051 241.932C74.8742 241.846 74.1985 241.702 73.5779 241.499C72.9714 241.315 72.4429 241.083 71.9925 240.805C71.5598 240.512 71.2281 240.183 70.9974 239.817C70.7845 239.438 70.7043 239.025 70.7568 238.58C70.8112 238.12 70.9923 237.746 71.2999 237.46C71.6095 237.159 71.9334 236.939 72.2719 236.802C72.6755 237.204 73.1801 237.57 73.7856 237.899C74.4071 238.23 75.0992 238.441 75.8619 238.531C76.6405 238.623 77.2027 238.568 77.5487 238.368C77.8946 238.167 78.0863 237.907 78.1239 237.59C78.1614 237.272 78.0624 237.019 77.827 236.83C77.5934 236.625 77.2556 236.416 76.8135 236.202L75.8519 235.75Z" fill="#8155B4"/>
<path d="M89.8894 231.799C89.7883 231.616 89.6992 231.37 89.6219 231.061C89.5446 230.752 89.5162 230.429 89.5367 230.094C89.5747 229.471 89.7378 229.032 90.0259 228.777C90.3299 228.523 90.7055 228.41 91.1527 228.437L101.597 229.075C101.698 229.258 101.787 229.504 101.865 229.813C101.942 230.122 101.97 230.445 101.95 230.78C101.912 231.403 101.741 231.841 101.437 232.095C101.149 232.35 100.781 232.464 100.334 232.437L97.6749 232.274L96.9988 243.341C96.8202 243.379 96.5378 243.41 96.1516 243.434C95.7813 243.459 95.4126 243.461 95.0453 243.439C94.6779 243.416 94.3525 243.364 94.0689 243.283C93.8004 243.218 93.5747 243.108 93.3918 242.953C93.2089 242.797 93.0774 242.589 92.9972 242.328C92.917 242.066 92.8895 241.728 92.9149 241.313L93.4827 232.018L89.8894 231.799Z" fill="#8155B4"/>
<path d="M111.877 229.839C112.149 229.68 112.558 229.528 113.102 229.385C113.662 229.242 114.222 229.171 114.782 229.172C115.582 229.173 116.286 229.294 116.894 229.535C117.517 229.76 117.917 230.12 118.092 230.616C118.379 231.449 118.689 232.417 119.024 233.522C119.358 234.626 119.692 235.771 120.027 236.955C120.361 238.124 120.687 239.284 121.005 240.437C121.324 241.573 121.602 242.582 121.841 243.462C121.649 243.686 121.36 243.861 120.976 243.989C120.592 244.132 120.136 244.204 119.608 244.203C119.224 244.202 118.896 244.17 118.624 244.105C118.368 244.041 118.152 243.945 117.976 243.816C117.817 243.688 117.681 243.52 117.569 243.312C117.473 243.104 117.386 242.863 117.306 242.591L116.877 240.935L112.533 240.928C112.404 241.408 112.275 241.904 112.146 242.416C112.018 242.927 111.889 243.423 111.76 243.903C111.536 243.983 111.296 244.046 111.04 244.094C110.8 244.158 110.504 244.189 110.152 244.189C109.336 244.187 108.728 244.051 108.328 243.778C107.945 243.489 107.753 243.097 107.754 242.601C107.755 242.377 107.787 242.153 107.851 241.929C107.916 241.705 107.988 241.441 108.068 241.138C108.181 240.706 108.334 240.17 108.527 239.53C108.736 238.891 108.961 238.203 109.202 237.467C109.443 236.716 109.7 235.948 109.973 235.164C110.246 234.381 110.504 233.645 110.745 232.958C110.986 232.254 111.202 231.63 111.395 231.087C111.604 230.543 111.765 230.127 111.877 229.839ZM114.753 232.94C114.528 233.611 114.27 234.363 113.981 235.194C113.708 236.01 113.459 236.842 113.233 237.689L116.209 237.694C115.987 236.829 115.756 235.989 115.517 235.173C115.294 234.34 115.088 233.596 114.897 232.94L114.753 232.94Z" fill="#8155B4"/>
<path d="M133.55 238.774L133.824 243.373C133.651 243.432 133.375 243.496 132.994 243.567C132.63 243.637 132.264 243.683 131.897 243.705C131.529 243.727 131.2 243.714 130.909 243.667C130.634 243.636 130.397 243.554 130.197 243.421C130.012 243.288 129.865 243.097 129.754 242.847C129.643 242.597 129.575 242.264 129.55 241.849L128.878 230.565C128.858 230.23 128.93 229.969 129.095 229.783C129.276 229.58 129.522 229.413 129.835 229.282C130.366 229.058 130.989 228.884 131.703 228.762C132.416 228.623 133.18 228.529 133.995 228.481C136.199 228.35 137.887 228.714 139.061 229.574C140.234 230.433 140.868 231.654 140.962 233.235C141.021 234.225 140.816 235.087 140.346 235.82C139.877 236.553 139.303 237.132 138.623 237.558C139.244 238.306 139.855 239.007 140.455 239.66C141.055 240.314 141.531 240.911 141.884 241.451C141.758 242.019 141.488 242.468 141.075 242.797C140.677 243.109 140.214 243.281 139.687 243.313C139.336 243.334 139.03 243.312 138.769 243.247C138.509 243.182 138.279 243.084 138.079 242.952C137.878 242.819 137.692 242.654 137.52 242.456C137.348 242.258 137.183 242.043 137.025 241.812L134.82 238.698L133.55 238.774ZM134.87 235.497C135.476 235.461 135.947 235.281 136.28 234.956C136.612 234.616 136.76 234.142 136.724 233.536C136.688 232.929 136.461 232.485 136.044 232.206C135.641 231.909 135.017 231.786 134.171 231.836C133.931 231.851 133.74 231.87 133.597 231.895C133.454 231.919 133.296 231.953 133.122 231.995L133.336 235.589L134.87 235.497Z" fill="#8155B4"/>
<path d="M147.538 231.259C147.406 231.097 147.274 230.871 147.143 230.58C147.012 230.289 146.927 229.977 146.888 229.644C146.815 229.024 146.897 228.563 147.135 228.261C147.389 227.957 147.739 227.779 148.184 227.726L158.576 226.499C158.708 226.661 158.839 226.887 158.97 227.178C159.101 227.468 159.186 227.78 159.226 228.114C159.299 228.734 159.208 229.195 158.954 229.499C158.716 229.801 158.374 229.979 157.929 230.031L155.284 230.344L156.584 241.355C156.415 241.423 156.143 241.504 155.767 241.597C155.407 241.688 155.045 241.755 154.679 241.798C154.314 241.841 153.984 241.848 153.691 241.818C153.415 241.802 153.173 241.734 152.966 241.613C152.758 241.493 152.592 241.311 152.466 241.068C152.341 240.825 152.254 240.497 152.205 240.084L151.113 230.836L147.538 231.259Z" fill="#8155B4"/>
</svg>
