<svg width="19" height="18" viewBox="0 0 19 18" fill="none" xmlns="http://www.w3.org/2000/svg">
<g clip-path="url(#clip0_4:9)">
<rect x="2.50001" y="2" width="14" height="14" rx="2" fill="white"/>
<path d="M16.3513 9.1575C16.3513 8.69666 16.3104 8.25916 16.2404 7.83333H9.64875V10.4642H13.4229C13.2537 11.3275 12.7579 12.0567 12.0229 12.5525V14.3025H14.2746C15.5929 13.0833 16.3513 11.2867 16.3513 9.1575Z" fill="#4285F4"/>
<path d="M9.64876 16C11.5388 16 13.1196 15.37 14.2746 14.3025L12.0229 12.5525C11.3929 12.9725 10.5938 13.2292 9.64876 13.2292C7.82292 13.2292 6.27709 11.9983 5.72292 10.3358H3.40126V12.1383C4.55042 14.425 6.91292 16 9.64876 16Z" fill="#34A853"/>
<path d="M5.72292 10.3358C5.57708 9.91583 5.50125 9.46666 5.50125 9C5.50125 8.53333 5.58292 8.08416 5.72292 7.66416V5.86166H3.40125C2.92292 6.80666 2.64875 7.86833 2.64875 9C2.64875 10.1317 2.92292 11.1933 3.40125 12.1383L5.72292 10.3358Z" fill="#FBBC05"/>
<path d="M9.64876 4.77083C10.6813 4.77083 11.6029 5.12667 12.3321 5.82083L14.3271 3.82583C13.1196 2.69417 11.5388 2 9.64876 2C6.91292 2 4.55042 3.575 3.40126 5.86167L5.72292 7.66417C6.27709 6.00167 7.82292 4.77083 9.64876 4.77083Z" fill="#EA4335"/>
</g>
<defs>
<clipPath id="clip0_4:9">
<rect width="14" height="14" fill="white" transform="translate(2.5 2)"/>
</clipPath>
</defs>
</svg>
