<svg width="24" height="24" viewBox="0 0 24 24" fill="none" xmlns="http://www.w3.org/2000/svg">
<path d="M11.2379 7.17282C11.4749 7.39242 11.6805 7.58714 11.8456 7.74554C11.82 7.80957 11.7916 7.87791 11.7605 7.94983C11.5595 8.41416 11.2537 9.00232 10.8294 9.53936C10.4045 10.0771 9.89015 10.5269 9.27892 10.7781C8.6868 11.0214 7.93378 11.1083 6.95312 10.8127C5.05915 10.242 4.19835 8.75097 4.02993 7.07612C3.94487 6.23018 4.0448 5.36605 4.27829 4.61764C4.50714 3.88411 4.84275 3.32785 5.18653 3.00022C5.20673 2.9991 5.2395 2.99939 5.28851 3.00493C5.47536 3.02604 5.76178 3.11297 6.15057 3.3007C6.92134 3.67287 7.85585 4.32228 8.78949 5.06084C9.71218 5.79074 10.5889 6.57139 11.2379 7.17282ZM5.15987 3.00384C5.15973 3.00369 5.16173 3.00302 5.16628 3.00226C5.16228 3.0036 5.16001 3.00399 5.15987 3.00384Z" fill="white" stroke="#7F55B3" stroke-width="2"/>
<path d="M12.7621 7.17282C12.5251 7.39242 12.3195 7.58714 12.1544 7.74554C12.18 7.80957 12.2084 7.87791 12.2395 7.94983C12.4405 8.41416 12.7463 9.00232 13.1706 9.53936C13.5955 10.0771 14.1098 10.5269 14.7211 10.7781C15.3132 11.0214 16.0662 11.1083 17.0469 10.8127C18.9408 10.242 19.8016 8.75097 19.9701 7.07612C20.0551 6.23018 19.9552 5.36605 19.7217 4.61764C19.4929 3.88411 19.1573 3.32785 18.8135 3.00022C18.7933 2.9991 18.7605 2.99939 18.7115 3.00493C18.5246 3.02604 18.2382 3.11297 17.8494 3.3007C17.0787 3.67287 16.1441 4.32228 15.2105 5.06084C14.2878 5.79074 13.4111 6.57139 12.7621 7.17282ZM18.8401 3.00384C18.8403 3.00369 18.8383 3.00302 18.8337 3.00226C18.8377 3.0036 18.84 3.00399 18.8401 3.00384Z" fill="white" stroke="#7F55B3" stroke-width="2"/>
<circle cx="12" cy="14" r="7" fill="white" stroke="#7F55B3" stroke-width="2"/>
</svg>
