<svg width="24" height="24" viewBox="0 0 24 24" fill="none" xmlns="http://www.w3.org/2000/svg">
<path d="M12 8C12 10.2091 10.2091 12 8 12C5.79086 12 4 10.2091 4 8C4 5.79086 5.79086 4 8 4C10.2091 4 12 5.79086 12 8Z" fill="#8155B4"/>
<path d="M20 7.5C20 9.433 18.433 11 16.5 11C14.567 11 13 9.433 13 7.5C13 5.567 14.567 4 16.5 4C18.433 4 20 5.567 20 7.5Z" fill="#8155B4"/>
<path d="M14 19C14 18.2121 13.8448 17.4319 13.5433 16.7039C13.2417 15.9759 12.7998 15.3145 12.2426 14.7574C11.6855 14.2002 11.0241 13.7583 10.2961 13.4567C9.56815 13.1552 8.78793 13 8 13C7.21207 13 6.43185 13.1552 5.7039 13.4567C4.97595 13.7583 4.31451 14.2002 3.75736 14.7574C3.20021 15.3145 2.75825 15.9759 2.45672 16.7039C2.15519 17.4319 2 18.2121 2 19L14 19Z" fill="#8155B4"/>
<path d="M22 18C22 16.8133 21.6774 15.6533 21.0731 14.6666C20.4687 13.6799 19.6098 12.9108 18.6048 12.4567C17.5998 12.0026 16.4939 11.8838 15.427 12.1153C14.3601 12.3468 13.3801 12.9182 12.6109 13.7574L16.5 18H22Z" fill="#8155B4"/>
</svg>
