<svg width="20" height="20" viewBox="0 0 20 20" fill="none" xmlns="http://www.w3.org/2000/svg">
<path d="M10 6C10 8.20914 8.20914 10 6 10C3.79086 10 2 8.20914 2 6C2 3.79086 3.79086 2 6 2C8.20914 2 10 3.79086 10 6Z" fill="#757575"/>
<path d="M18 5.5C18 7.433 16.433 9 14.5 9C12.567 9 11 7.433 11 5.5C11 3.567 12.567 2 14.5 2C16.433 2 18 3.567 18 5.5Z" fill="#757575"/>
<path d="M12 17C12 16.2121 11.8448 15.4319 11.5433 14.7039C11.2417 13.9759 10.7998 13.3145 10.2426 12.7574C9.68549 12.2002 9.02405 11.7583 8.2961 11.4567C7.56815 11.1552 6.78793 11 6 11C5.21207 11 4.43185 11.1552 3.7039 11.4567C2.97595 11.7583 2.31451 12.2002 1.75736 12.7574C1.20021 13.3145 0.758251 13.9759 0.456723 14.7039C0.155194 15.4319 -6.88831e-08 16.2121 0 17L12 17Z" fill="#757575"/>
<path d="M20 16C20 14.8133 19.6774 13.6533 19.0731 12.6666C18.4687 11.6799 17.6098 10.9108 16.6048 10.4567C15.5998 10.0026 14.4939 9.88378 13.427 10.1153C12.3601 10.3468 11.3801 10.9182 10.6109 11.7574L14.5 16H20Z" fill="#757575"/>
</svg>
