<svg width="20" height="20" viewBox="0 0 20 20" fill="none" xmlns="http://www.w3.org/2000/svg">
<g clip-path="url(#clip0_15:305)">
<circle cx="10" cy="10" r="10" fill="#8155B4"/>
<path d="M6.79954 14.9437C6.79954 14.3458 6.98937 13.8573 7.36902 13.4781C7.76386 13.0844 8.30296 12.8875 8.98633 12.8875C9.6697 12.8875 10.2012 13.0844 10.5809 13.4781C10.9757 13.8573 11.1731 14.3458 11.1731 14.9437C11.1731 15.5417 10.9757 16.0375 10.5809 16.4313C10.2012 16.8104 9.6697 17 8.98633 17C8.30296 17 7.76386 16.8104 7.36902 16.4313C6.98937 16.0375 6.79954 15.5417 6.79954 14.9437ZM7.55125 12.0781C7.29309 11.9469 7.05011 11.7135 6.82232 11.3781C6.59453 11.0281 6.48064 10.6198 6.48064 10.1531C6.48064 9.70104 6.60213 9.36563 6.8451 9.14688C7.10327 8.91354 7.47532 8.73854 7.96128 8.62188L9.73804 8.20625C10.4973 8.01667 10.877 7.66667 10.877 7.15625C10.877 6.87917 10.7327 6.63854 10.4442 6.43438C10.1708 6.23021 9.69248 6.12813 9.00911 6.12813C8.38648 6.12813 7.80182 6.20833 7.25513 6.36875C6.70843 6.51458 6.26803 6.68958 5.93394 6.89375C5.67578 6.70417 5.45558 6.47812 5.27335 6.21563C5.09112 5.93854 5 5.61042 5 5.23125C5 4.85208 5.1139 4.52396 5.34169 4.24687C5.56948 3.95521 5.88079 3.72187 6.27563 3.54687C6.68565 3.35729 7.16401 3.21875 7.71071 3.13125C8.27259 3.04375 8.88762 3 9.55581 3C11.3478 3 12.6993 3.38646 13.6105 4.15937C14.5368 4.91771 15 5.91667 15 7.15625C15 9.48958 13.284 10.9844 9.85194 11.6406L7.55125 12.0781Z" fill="white"/>
</g>
<defs>
<clipPath id="clip0_15:305">
<rect width="20" height="20" fill="white"/>
</clipPath>
</defs>
</svg>
