<svg width="20" height="20" viewBox="0 0 20 20" fill="none" xmlns="http://www.w3.org/2000/svg">
<path d="M19.6356 8.35696L17.0658 7.93696C16.9154 7.4213 16.7097 6.92565 16.4523 6.45652L17.9524 4.3187C18.0737 4.14609 18.0529 3.91087 17.9037 3.7613L16.2127 2.0713C16.0618 1.92087 15.8244 1.9013 15.6514 2.02609L13.5455 3.53957C13.072 3.27783 12.572 3.07 12.0532 2.91913L11.6049 0.36C11.5684 0.152174 11.3879 0 11.1766 0H8.78511C8.57205 0 8.39029 0.154348 8.35594 0.364783L7.94025 2.91C7.41847 3.06 6.91756 3.26565 6.44578 3.52391L4.3456 2.02391C4.1721 1.9 3.93599 1.92 3.78511 2.07L2.09496 3.76C1.94582 3.90913 1.92495 4.14391 2.04626 4.31652L3.52422 6.43087C3.26115 6.90696 3.05157 7.41087 2.89895 7.93522L0.36351 8.35739C0.153926 8.39217 0 8.57391 0 8.78609V11.1774C0 11.3883 0.151317 11.5687 0.358727 11.6057L2.89416 12.0552C3.04592 12.5783 3.2555 13.0822 3.51944 13.5596L2.02322 15.6522C1.89973 15.8248 1.9193 16.0617 2.06931 16.2126L3.75989 17.9043C3.90904 18.0535 4.14427 18.0743 4.3169 17.953L6.43447 16.47C6.90973 16.7313 7.41195 16.9387 7.93243 17.0891L8.35681 19.6374C8.39116 19.8465 8.57248 20 8.78511 20H11.1766C11.3875 20 11.568 19.8487 11.6045 19.6413L12.0589 17.0804C12.5802 16.927 13.0798 16.7183 13.5503 16.4565L15.6831 17.9526C15.8562 18.0748 16.091 18.0535 16.2405 17.9043L17.9311 16.2126C18.0816 16.0617 18.1011 15.8239 17.9763 15.6509L16.4553 13.5391C16.7132 13.0696 16.918 12.573 17.0671 12.0574L19.6404 11.6057C19.8487 11.5691 20 11.3883 20 11.1774V8.78609C20.0004 8.57304 19.8461 8.3913 19.6356 8.35696ZM10 13.0435C8.31898 13.0435 6.95626 11.6809 6.95626 10C6.95626 8.31913 8.31898 6.95652 10 6.95652C11.681 6.95652 13.0437 8.31913 13.0437 10C13.0437 11.6809 11.681 13.0435 10 13.0435Z" fill="#757575"/>
</svg>
