<svg width="24" height="24" viewBox="0 0 24 24" fill="none" xmlns="http://www.w3.org/2000/svg">
<path d="M21.6356 10.357L19.0658 9.93696C18.9154 9.4213 18.7097 8.92565 18.4523 8.45652L19.9524 6.3187C20.0737 6.14609 20.0529 5.91087 19.9037 5.7613L18.2127 4.0713C18.0618 3.92087 17.8244 3.9013 17.6514 4.02609L15.5455 5.53957C15.072 5.27783 14.572 5.07 14.0532 4.91913L13.6049 2.36C13.5684 2.15217 13.3879 2 13.1766 2H10.7851C10.572 2 10.3903 2.15435 10.3559 2.36478L9.94025 4.91C9.41847 5.06 8.91756 5.26565 8.44578 5.52391L6.3456 4.02391C6.1721 3.9 5.93599 3.92 5.78511 4.07L4.09496 5.76C3.94582 5.90913 3.92495 6.14391 4.04626 6.31652L5.52422 8.43087C5.26115 8.90696 5.05157 9.41087 4.89895 9.93522L2.36351 10.3574C2.15393 10.3922 2 10.5739 2 10.7861V13.1774C2 13.3883 2.15132 13.5687 2.35873 13.6057L4.89416 14.0552C5.04592 14.5783 5.2555 15.0822 5.51944 15.5596L4.02322 17.6522C3.89973 17.8248 3.9193 18.0617 4.06931 18.2126L5.75989 19.9043C5.90904 20.0535 6.14427 20.0743 6.3169 19.953L8.43447 18.47C8.90973 18.7313 9.41195 18.9387 9.93243 19.0891L10.3568 21.6374C10.3912 21.8465 10.5725 22 10.7851 22H13.1766C13.3875 22 13.568 21.8487 13.6045 21.6413L14.0589 19.0804C14.5802 18.927 15.0798 18.7183 15.5503 18.4565L17.6831 19.9526C17.8562 20.0748 18.091 20.0535 18.2405 19.9043L19.9311 18.2126C20.0816 18.0617 20.1011 17.8239 19.9763 17.6509L18.4553 15.5391C18.7132 15.0696 18.918 14.573 19.0671 14.0574L21.6404 13.6057C21.8487 13.5691 22 13.3883 22 13.1774V10.7861C22.0004 10.573 21.8461 10.3913 21.6356 10.357ZM12 15.0435C10.319 15.0435 8.95626 13.6809 8.95626 12C8.95626 10.3191 10.319 8.95652 12 8.95652C13.681 8.95652 15.0437 10.3191 15.0437 12C15.0437 13.6809 13.681 15.0435 12 15.0435Z" fill="#8155B4"/>
</svg>
