<svg width="24" height="24" viewBox="0 0 24 24" fill="none" xmlns="http://www.w3.org/2000/svg">
<path d="M3.11627 20C9.04122 19.3617 15.0012 19.3372 21 20C20.8646 15.6001 20.5949 11.2902 20.6943 6.73339C17.0096 6.88331 14.9073 3.24695 11.7497 6.13159C8.17678 3.15719 8.1769 6.98821 3 6.9774C3.24709 11.3793 3.1514 15.6805 3.11627 20Z" fill="white"/>
<path d="M12.2179 17.53C14.457 15.6384 17.4633 18.6834 20.055 18.8475L20.0412 7.44501C15.9431 7.13215 14.4905 3.56789 12.1484 6.77811L12.2179 17.53Z" fill="white"/>
<path d="M11.3843 17.6602C9.14524 15.7684 6.13894 18.8135 3.54728 18.9773L3.56096 7.57529C7.6591 7.26246 9.11136 3.69841 11.4538 6.90867L11.3843 17.6602Z" fill="white"/>
<path d="M3.11627 20L2.1163 19.9919C2.11398 20.2771 2.23361 20.5498 2.44508 20.7413C2.65656 20.9328 2.93974 21.0248 3.22338 20.9942L3.11627 20ZM21 20L20.8902 20.994C21.1781 21.0258 21.4657 20.9311 21.6785 20.7346C21.8913 20.538 22.0084 20.2588 21.9995 19.9693L21 20ZM20.6943 6.73339L21.6941 6.75519C21.7001 6.4792 21.5917 6.213 21.3947 6.01964C21.1977 5.82629 20.9295 5.72299 20.6536 5.73421L20.6943 6.73339ZM11.7497 6.13159L11.1099 6.90013C11.494 7.21988 12.0552 7.20697 12.4241 6.86989L11.7497 6.13159ZM3 6.9774L3.00209 5.9774C2.72678 5.97683 2.46341 6.08978 2.27407 6.28963C2.08472 6.48949 1.98614 6.75857 2.00157 7.03344L3 6.9774ZM12.2179 17.53L11.218 17.5364L11.2318 19.6722L12.8633 18.2939L12.2179 17.53ZM20.055 18.8475L19.9918 19.8455L21.0563 19.9129L21.055 18.8463L20.055 18.8475ZM20.0412 7.44501L21.0412 7.4438L21.0401 6.51835L20.1174 6.44791L20.0412 7.44501ZM12.1484 6.77811L11.3405 6.18872L11.1463 6.45499L11.1484 6.78458L12.1484 6.77811ZM11.3843 17.6602L10.739 18.424L12.3705 19.8025L12.3843 17.6666L11.3843 17.6602ZM3.54728 18.9773L2.54728 18.9761L2.54601 20.0426L3.61035 19.9753L3.54728 18.9773ZM3.56096 7.57529L3.48485 6.57819L2.56207 6.64864L2.56096 7.57409L3.56096 7.57529ZM11.4538 6.90867L12.4538 6.91514L12.4559 6.58551L12.2616 6.31923L11.4538 6.90867ZM3.22338 20.9942C9.07945 20.3633 14.9666 20.3394 20.8902 20.994L21.1098 19.006C15.0357 18.3349 9.00299 18.36 3.00915 19.0058L3.22338 20.9942ZM21.9995 19.9693C21.8629 15.529 21.5954 11.2771 21.6941 6.75519L19.6945 6.71158C19.5944 11.3034 19.8664 15.6713 20.0005 20.0308L21.9995 19.9693ZM20.6536 5.73421C19.9061 5.76463 19.2186 5.60531 18.5244 5.35587C18.1744 5.23007 17.8316 5.08485 17.4743 4.93037C17.126 4.77978 16.7523 4.61521 16.3825 4.47332C15.6427 4.1895 14.795 3.94509 13.8657 4.03432C12.9094 4.12614 11.9905 4.55709 11.0752 5.39329L12.4241 6.86989C13.0876 6.26377 13.6157 6.06752 14.0568 6.02517C14.5249 5.98023 15.025 6.09466 15.6661 6.34062C15.9867 6.46362 16.3117 6.60666 16.6806 6.76614C17.0405 6.92175 17.4335 7.08908 17.8481 7.23803C18.6831 7.5381 19.6401 7.77711 20.7349 7.73256L20.6536 5.73421ZM12.3895 5.36305C11.433 4.56678 10.5766 4.10422 9.70434 4.01557C8.81249 3.92493 8.09295 4.24693 7.50493 4.56123C6.35261 5.17718 5.29099 5.98218 3.00209 5.9774L2.99791 7.9774C5.8859 7.98343 7.41268 6.87833 8.44774 6.32507C8.95342 6.05477 9.22732 5.97739 9.50211 6.00532C9.79647 6.03524 10.2799 6.20919 11.1099 6.90013L12.3895 5.36305ZM2.00157 7.03344C2.24636 11.3944 2.15159 15.6526 2.1163 19.9919L4.11623 20.0081C4.1512 15.7084 4.24781 11.3642 3.99843 6.92136L2.00157 7.03344ZM12.8633 18.2939C13.5076 17.7495 14.2958 17.8084 15.631 18.3456C15.9494 18.4737 16.2741 18.6184 16.6181 18.7724C16.9561 18.9238 17.3144 19.085 17.673 19.2318C18.3806 19.5216 19.1769 19.7939 19.9918 19.8455L20.1182 17.8495C19.6372 17.819 19.086 17.6492 18.4309 17.381C18.1083 17.2489 17.7816 17.1021 17.4355 16.9471C17.0954 16.7948 16.7369 16.6347 16.3775 16.4901C15.0018 15.9367 13.1673 15.4189 11.5726 16.7661L12.8633 18.2939ZM21.055 18.8463L21.0412 7.4438L19.0412 7.44621L19.055 18.8487L21.055 18.8463ZM20.1174 6.44791C18.302 6.30932 17.2013 5.49181 15.8487 4.87942C15.2192 4.5944 14.441 4.32427 13.5858 4.5058C12.7141 4.69081 11.9961 5.29011 11.3405 6.18872L12.9562 7.36749C13.4717 6.66099 13.8136 6.502 14.001 6.46221C14.2049 6.41894 14.4852 6.45751 15.0238 6.70139C16.0076 7.14679 17.6823 8.26783 19.9651 8.4421L20.1174 6.44791ZM11.1484 6.78458L11.218 17.5364L13.2179 17.5235L13.1484 6.77164L11.1484 6.78458ZM12.0297 16.8963C10.435 15.549 8.60046 16.0667 7.22479 16.6202C6.86543 16.7647 6.50692 16.9248 6.16681 17.0771C5.82074 17.2321 5.49405 17.3788 5.17138 17.511C4.51637 17.7791 3.96512 17.9489 3.48421 17.9793L3.61035 19.9753C4.42527 19.9238 5.22168 19.6515 5.92922 19.3618C6.28783 19.215 6.64615 19.0538 6.98418 18.9025C7.32818 18.7484 7.65289 18.6037 7.97124 18.4757C9.30642 17.9385 10.0946 17.8796 10.739 18.424L12.0297 16.8963ZM4.54728 18.9785L4.56096 7.57649L2.56096 7.57409L2.54728 18.9761L4.54728 18.9785ZM3.63708 8.57239C5.91987 8.39813 7.59449 7.27715 8.57819 6.83181C9.11678 6.58798 9.39706 6.54942 9.60098 6.59271C9.78848 6.63252 10.1305 6.79158 10.646 7.49812L12.2616 6.31923C11.6059 5.42063 10.888 4.82136 10.0163 4.63631C9.16103 4.45474 8.3829 4.72482 7.75335 5.00983C6.40077 5.62216 5.3002 6.43962 3.48485 6.57819L3.63708 8.57239ZM10.4538 6.90221L10.3844 17.6537L12.3843 17.6666L12.4538 6.91514L10.4538 6.90221Z" fill="#8155B4"/>
</svg>
