<svg width="411" height="24" viewBox="0 0 411 24" fill="none" xmlns="http://www.w3.org/2000/svg">
<rect width="411" height="24" fill="#E0E0E0"/>
<path d="M398.064 5.6H399.4V4H402.6V5.6H403.936C404.52 5.6 405 6.08 405 6.664V18.928C405 19.52 404.52 20 403.936 20H398.072C397.48 20 397 19.52 397 18.936V6.664C397 6.08 397.48 5.6 398.064 5.6Z" fill="#424242"/>
<path d="M361.007 18.993L369 8.81081C368.691 8.57189 365.612 6 361 6C356.381 6 353.309 8.57189 353 8.81081L360.993 18.993L361 19L361.007 18.993Z" fill="#424242"/>
<path d="M373 20H389V4L373 20Z" fill="#424242"/>
<path d="M9.96973 17H8.31543V9.00879L5.875 9.84277V8.44141L9.75781 7.0127H9.96973V17ZM19.916 12.8096C19.916 14.2406 19.6471 15.3206 19.1094 16.0498C18.5762 16.7744 17.7627 17.1367 16.6689 17.1367C15.5934 17.1367 14.7822 16.7835 14.2354 16.0771C13.693 15.3662 13.415 14.3158 13.4014 12.9258V11.2031C13.4014 9.77214 13.668 8.69889 14.2012 7.9834C14.7389 7.2679 15.557 6.91016 16.6553 6.91016C17.7445 6.91016 18.5557 7.25879 19.0889 7.95605C19.6266 8.65332 19.9023 9.69694 19.916 11.0869V12.8096ZM18.2549 10.9502C18.2549 10.016 18.1273 9.33236 17.8721 8.89941C17.6169 8.46191 17.2113 8.24316 16.6553 8.24316C16.113 8.24316 15.7142 8.45052 15.459 8.86523C15.2038 9.27539 15.0693 9.91797 15.0557 10.793V13.0488C15.0557 13.9785 15.1855 14.6712 15.4453 15.127C15.7051 15.5827 16.113 15.8105 16.6689 15.8105C17.2021 15.8105 17.5964 15.6009 17.8516 15.1816C18.1068 14.7578 18.2412 14.097 18.2549 13.1992V10.9502ZM22.4932 15.25C22.8031 15.25 23.0423 15.3389 23.2109 15.5166C23.3796 15.6898 23.4639 15.9085 23.4639 16.1729C23.4639 16.4326 23.3796 16.6491 23.2109 16.8223C23.0423 16.9909 22.8031 17.0752 22.4932 17.0752C22.1969 17.0752 21.9622 16.9909 21.7891 16.8223C21.6159 16.6536 21.5293 16.4372 21.5293 16.1729C21.5293 15.9085 21.6136 15.6898 21.7822 15.5166C21.9508 15.3389 22.1878 15.25 22.4932 15.25ZM22.4932 9.44629C22.8031 9.44629 23.0423 9.53516 23.2109 9.71289C23.3796 9.88607 23.4639 10.1048 23.4639 10.3691C23.4639 10.6289 23.3796 10.8454 23.2109 11.0186C23.0423 11.1872 22.8031 11.2715 22.4932 11.2715C22.1969 11.2715 21.9622 11.1872 21.7891 11.0186C21.6159 10.8499 21.5293 10.6335 21.5293 10.3691C21.5293 10.1048 21.6136 9.88607 21.7822 9.71289C21.9508 9.53516 22.1878 9.44629 22.4932 9.44629ZM31.7969 17H25.1045V15.8584L28.4199 12.2422C28.8984 11.709 29.238 11.2646 29.4385 10.9092C29.6436 10.5492 29.7461 10.1891 29.7461 9.8291C29.7461 9.35514 29.6117 8.97233 29.3428 8.68066C29.0785 8.389 28.7207 8.24316 28.2695 8.24316C27.7318 8.24316 27.3148 8.40723 27.0186 8.73535C26.7223 9.06348 26.5742 9.51237 26.5742 10.082H24.9131C24.9131 9.47591 25.0498 8.93132 25.3232 8.44824C25.6012 7.96061 25.9954 7.58236 26.5059 7.31348C27.0208 7.0446 27.6133 6.91016 28.2832 6.91016C29.2493 6.91016 30.0104 7.15397 30.5664 7.6416C31.127 8.12467 31.4072 8.7946 31.4072 9.65137C31.4072 10.1481 31.266 10.6699 30.9834 11.2168C30.7054 11.7591 30.2474 12.3766 29.6094 13.0693L27.1758 15.6738H31.7969V17ZM37.5596 17H35.9053V9.00879L33.4648 9.84277V8.44141L37.3477 7.0127H37.5596V17Z" fill="#424242"/>
</svg>
